<svg xmlns="http://www.w3.org/2000/svg" viewBox="0 0 24 24" fill="none">
  <path fill-rule="evenodd" clip-rule="evenodd" d="M23.59 3.46525C23.0756 2.04517 21.9564 0.926099 20.5371 0.411806C19.2295 0 18.0402 0 15.6189 0H8.3589L8.35983 0.000924232C5.95336 0.000924232 4.74921 0.000924228 3.46287 0.400726C2.04355 0.91502 0.924351 2.03409 0.410004 3.45509C0 4.75421 0 5.95638 0 8.36349V15.6264C0 18.0464 0 19.2384 0.399848 20.5348C0.9142 21.9548 2.03339 23.0739 3.45271 23.5882C4.75105 24 5.95336 24 8.35983 24H15.6309C18.0402 24 19.2416 24 20.5371 23.5882C21.9574 23.0739 23.0756 21.9548 23.59 20.5348C24 19.2356 24 18.0335 24 15.6264V8.37365C24 5.96377 24 4.7616 23.59 3.46525ZM17.2889 8.21523L15.905 9.3499C15.7848 9.4485 15.6092 9.42698 15.5114 9.30605C14.8081 8.43622 13.7008 7.94464 12.5014 7.94464C11.1647 7.94464 10.3338 8.52259 10.3338 9.3534C10.3338 10.0397 10.9841 10.4009 12.971 10.8344C15.4999 11.3762 16.6559 12.4238 16.6559 14.1938C16.6559 16.4127 14.8489 18.0506 12.028 18.2239L11.7528 19.5364C11.7259 19.6647 11.6127 19.7566 11.4816 19.7566H9.31146C9.13261 19.7566 9.00062 19.5896 9.04192 19.4156L9.39025 17.9479C7.99198 17.5501 6.86683 16.7763 6.21092 15.8211C6.12833 15.7009 6.15573 15.5366 6.27089 15.447L7.78772 14.2674C7.91273 14.1702 8.09194 14.1986 8.18435 14.3272C8.98811 15.4458 10.2212 16.1082 11.7066 16.1082C13.0433 16.1082 14.0548 15.458 14.0548 14.5189C14.0548 13.7964 13.549 13.4713 11.8511 13.1101C8.92488 12.496 7.76884 11.4124 7.76884 9.64237C7.76884 7.58873 9.49497 6.03739 12.0987 5.8359L12.383 4.48034C12.4099 4.35205 12.523 4.26018 12.6541 4.26018H14.7951C14.9717 4.26018 15.1033 4.42323 15.0659 4.59583L14.7367 6.11469C15.8572 6.45953 16.7695 7.07612 17.3373 7.83698C17.4254 7.95492 17.4027 8.12192 17.2889 8.21523Z" fill="black" />
</svg>
